<svg xmlns="http://www.w3.org/2000/svg" width="428.495" height="441.615" viewBox="0 0 428.495 441.615">
  <path id="Intersection_1" data-name="Intersection 1" d="M-578.5,407.5l239.374,269.532Zm97,74L-339.125,641.81Zm37,11,105.374,118.649Zm0-27,105.374,118.649Zm-84.5,94a4.492,4.492,0,0,1,1.867-3.649A4.483,4.483,0,0,1-524.5,555a4.5,4.5,0,0,1,4.5,4.5,4.5,4.5,0,0,1-4.5,4.5A4.5,4.5,0,0,1-529,559.5Zm-219-286,254,286Zm-18.125,13.248,238.992,269.1ZM-502,518a4.492,4.492,0,0,1,1.867-3.649,4.484,4.484,0,0,1,2.633-.851A4.5,4.5,0,0,1-493,518a4.5,4.5,0,0,1-4.5,4.5A4.5,4.5,0,0,1-502,518ZM-716.78,236.75-467,518Zm-29.891,0,246.539,277.6Zm251.306,99.9,156.24,173.066ZM-452,489a4,4,0,0,1,4-4,4,4,0,0,1,4,4,4,4,0,0,1-4,4A4,4,0,0,1-452,489Zm-37-11a4,4,0,0,1,4-4,4,4,0,0,1,4,4,4,4,0,0,1-4,4A4,4,0,0,1-489,478Zm-31.366-203.351,181.24,200.758ZM-471.5,468a4.5,4.5,0,0,1,1.867-3.65A4.483,4.483,0,0,1-467,463.5a4.5,4.5,0,0,1,4.5,4.5,4.5,4.5,0,0,1-4.5,4.5A4.5,4.5,0,0,1-471.5,468Zm19.5-6a4,4,0,0,1,4-4,4,4,0,0,1,4,4,4,4,0,0,1-4,4A4,4,0,0,1-452,462ZM-671.766,236.75l202.134,227.6ZM-512.5,456a4.493,4.493,0,0,1,1.868-3.65A4.481,4.481,0,0,1-508,451.5a4.5,4.5,0,0,1,4.5,4.5,4.5,4.5,0,0,1-4.5,4.5A4.5,4.5,0,0,1-512.5,456ZM-702.109,236.75l191.476,215.6ZM-477,408a4,4,0,0,1,4-4,4,4,0,0,1,4,4,4,4,0,0,1-4,4A4,4,0,0,1-477,408Zm-109-4a4,4,0,0,1,4-4,4,4,0,0,1,4,4,4,4,0,0,1-4,4A4,4,0,0,1-586,404Zm-41.941-167.25L-476.5,404.5ZM-606.5,385a4.5,4.5,0,0,1,1.867-3.649A4.484,4.484,0,0,1-602,380.5a4.5,4.5,0,0,1,4.5,4.5,4.5,4.5,0,0,1-4.5,4.5A4.5,4.5,0,0,1-606.5,385ZM-733.053,236.75l128.42,144.6ZM-502.5,333a4.5,4.5,0,0,1,4.5-4.5,4.5,4.5,0,0,1,4.5,4.5,4.494,4.494,0,0,1-1.866,3.649A4.481,4.481,0,0,1-498,337.5,4.5,4.5,0,0,1-502.5,333Zm-25-62a4.5,4.5,0,0,1,4.5-4.5,4.5,4.5,0,0,1,4.5,4.5,4.494,4.494,0,0,1-1.866,3.649A4.481,4.481,0,0,1-523,275.5,4.5,4.5,0,0,1-527.5,271Z" transform="translate(766.873 -236.08)" fill="none" stroke="#707070" stroke-width="2"/>
</svg>
