<svg xmlns="http://www.w3.org/2000/svg" width="684.5" height="700.5" viewBox="0 0 684.5 700.5">
  <g id="Group_37" data-name="Group 37" transform="translate(135 113)">
    <g id="Group_1" data-name="Group 1">
      <line id="Line_8" data-name="Line 8" x2="195" y2="216" transform="translate(211.5 74.5)" fill="none" stroke="#707070" stroke-width="2"/>
      <circle id="Ellipse_1" data-name="Ellipse 1" cx="4.5" cy="4.5" r="4.5" transform="translate(204.5 66.5)" fill="#707070" stroke="#707070" stroke-width="2"/>
      <circle id="Ellipse_2" data-name="Ellipse 2" cx="4" cy="4" r="4" transform="translate(406 290)" fill="none" stroke="#707070" stroke-width="2"/>
    </g>
    <g id="Group_2" data-name="Group 2" transform="translate(25 62)">
      <line id="Line_8-2" data-name="Line 8" x2="195" y2="216" transform="translate(211.5 74.5)" fill="none" stroke="#707070" stroke-width="2"/>
      <circle id="Ellipse_1-2" data-name="Ellipse 1" cx="4.5" cy="4.5" r="4.5" transform="translate(204.5 66.5)" fill="#707070" stroke="#707070" stroke-width="2"/>
      <circle id="Ellipse_2-2" data-name="Ellipse 2" cx="4" cy="4" r="4" transform="translate(406 290)" fill="none" stroke="#707070" stroke-width="2"/>
    </g>
    <g id="Group_3" data-name="Group 3" transform="translate(-151 -86)">
      <line id="Line_8-3" data-name="Line 8" x2="195" y2="216" transform="translate(211.5 74.5)" fill="none" stroke="#707070" stroke-width="2"/>
      <circle id="Ellipse_1-3" data-name="Ellipse 1" cx="4.5" cy="4.5" r="4.5" transform="translate(204.5 66.5)" fill="#707070" stroke="#707070" stroke-width="2"/>
      <circle id="Ellipse_2-3" data-name="Ellipse 2" cx="4" cy="4" r="4" transform="translate(406 290)" fill="none" stroke="#707070" stroke-width="2"/>
    </g>
    <g id="Group_5" data-name="Group 5" transform="translate(474 339) rotate(180)">
      <line id="Line_8-4" data-name="Line 8" x2="254" y2="286" transform="translate(211.5 74.5)" fill="none" stroke="#707070" stroke-width="2"/>
      <circle id="Ellipse_1-4" data-name="Ellipse 1" cx="4.5" cy="4.5" r="4.5" transform="translate(204.5 66.5)" fill="#707070" stroke="#707070" stroke-width="2"/>
      <circle id="Ellipse_2-4" data-name="Ellipse 2" cx="4" cy="4" r="4" transform="translate(465 360)" fill="none" stroke="#707070" stroke-width="2"/>
    </g>
    <g id="Group_7" data-name="Group 7" transform="translate(339 256) rotate(180)">
      <line id="Line_8-5" data-name="Line 8" x2="254" y2="286" transform="translate(211.5 74.5)" fill="none" stroke="#707070" stroke-width="2"/>
      <circle id="Ellipse_1-5" data-name="Ellipse 1" cx="4.5" cy="4.5" r="4.5" transform="translate(204.5 66.5)" fill="#707070" stroke="#707070" stroke-width="2"/>
      <circle id="Ellipse_2-5" data-name="Ellipse 2" cx="4" cy="4" r="4" transform="translate(465 360)" fill="none" stroke="#707070" stroke-width="2"/>
    </g>
    <g id="Group_12" data-name="Group 12" transform="translate(433 327) rotate(180)">
      <line id="Line_8-6" data-name="Line 8" x2="254" y2="286" transform="translate(211.5 74.5)" fill="none" stroke="#707070" stroke-width="2"/>
      <circle id="Ellipse_1-6" data-name="Ellipse 1" cx="4.5" cy="4.5" r="4.5" transform="translate(204.5 66.5)" fill="#707070" stroke="#707070" stroke-width="2"/>
      <circle id="Ellipse_2-6" data-name="Ellipse 2" cx="4" cy="4" r="4" transform="translate(465 360)" fill="none" stroke="#707070" stroke-width="2"/>
    </g>
    <g id="Group_8" data-name="Group 8" transform="translate(619 568) rotate(180)">
      <line id="Line_8-7" data-name="Line 8" x2="254" y2="286" transform="translate(211.5 74.5)" fill="none" stroke="#707070" stroke-width="2"/>
      <circle id="Ellipse_1-7" data-name="Ellipse 1" cx="4.5" cy="4.5" r="4.5" transform="translate(204.5 66.5)" fill="#707070" stroke="#707070" stroke-width="2"/>
      <circle id="Ellipse_2-7" data-name="Ellipse 2" cx="4" cy="4" r="4" transform="translate(465 360)" fill="none" stroke="#707070" stroke-width="2"/>
    </g>
    <g id="Group_10" data-name="Group 10" transform="translate(443.5 389) rotate(180)">
      <line id="Line_8-8" data-name="Line 8" x2="254" y2="286" transform="translate(211.5 74.5)" fill="none" stroke="#707070" stroke-width="2"/>
      <line id="Line_9" data-name="Line 9" x2="254" y2="286" transform="translate(178.5 71)" fill="none" stroke="#707070" stroke-width="2"/>
      <circle id="Ellipse_1-8" data-name="Ellipse 1" cx="4.5" cy="4.5" r="4.5" transform="translate(204.5 66.5)" fill="#707070" stroke="#707070" stroke-width="2"/>
      <circle id="Ellipse_2-8" data-name="Ellipse 2" cx="4" cy="4" r="4" transform="translate(465 360)" fill="none" stroke="#707070" stroke-width="2"/>
    </g>
    <g id="Group_13" data-name="Group 13" transform="translate(416.5 430.5) rotate(180)">
      <line id="Line_8-9" data-name="Line 8" x2="254" y2="286" transform="translate(211.5 74.5)" fill="none" stroke="#707070" stroke-width="2"/>
      <line id="Line_9-2" data-name="Line 9" x2="254" y2="286" transform="translate(178.5 71)" fill="none" stroke="#707070" stroke-width="2"/>
      <circle id="Ellipse_1-9" data-name="Ellipse 1" cx="4.5" cy="4.5" r="4.5" transform="translate(204.5 66.5)" fill="#707070" stroke="#707070" stroke-width="2"/>
      <circle id="Ellipse_2-9" data-name="Ellipse 2" cx="4" cy="4" r="4" transform="translate(465 360)" fill="none" stroke="#707070" stroke-width="2"/>
    </g>
    <g id="Group_9" data-name="Group 9" transform="translate(716 642) rotate(180)">
      <line id="Line_8-10" data-name="Line 8" x2="254" y2="286" transform="translate(211.5 74.5)" fill="none" stroke="#707070" stroke-width="2"/>
      <circle id="Ellipse_1-10" data-name="Ellipse 1" cx="4.5" cy="4.5" r="4.5" transform="translate(204.5 66.5)" fill="#707070" stroke="#707070" stroke-width="2"/>
      <circle id="Ellipse_2-10" data-name="Ellipse 2" cx="4" cy="4" r="4" transform="translate(465 360)" fill="none" stroke="#707070" stroke-width="2"/>
    </g>
    <g id="Group_11" data-name="Group 11" transform="translate(753 626) rotate(180)">
      <line id="Line_8-11" data-name="Line 8" x2="254" y2="286" transform="translate(211.5 74.5)" fill="none" stroke="#707070" stroke-width="2"/>
      <circle id="Ellipse_1-11" data-name="Ellipse 1" cx="4.5" cy="4.5" r="4.5" transform="translate(204.5 66.5)" fill="#707070" stroke="#707070" stroke-width="2"/>
      <circle id="Ellipse_2-11" data-name="Ellipse 2" cx="4" cy="4" r="4" transform="translate(465 360)" fill="none" stroke="#707070" stroke-width="2"/>
    </g>
    <g id="Group_6" data-name="Group 6" transform="translate(753 653) rotate(180)">
      <line id="Line_8-12" data-name="Line 8" x2="254" y2="286" transform="translate(211.5 74.5)" fill="none" stroke="#707070" stroke-width="2"/>
      <circle id="Ellipse_1-12" data-name="Ellipse 1" cx="4.5" cy="4.5" r="4.5" transform="translate(204.5 66.5)" fill="#707070" stroke="#707070" stroke-width="2"/>
      <circle id="Ellipse_2-12" data-name="Ellipse 2" cx="4" cy="4" r="4" transform="translate(465 360)" fill="none" stroke="#707070" stroke-width="2"/>
    </g>
    <g id="Group_4" data-name="Group 4" transform="translate(78 150)">
      <path id="Path_3" data-name="Path 3" d="M-5.5,9.5l25,12L195,216" transform="translate(211.5 74.5)" fill="none" stroke="#707070" stroke-width="2"/>
      <circle id="Ellipse_1-13" data-name="Ellipse 1" cx="4.5" cy="4.5" r="4.5" transform="translate(201.5 79.5)" fill="#707070" stroke="#707070" stroke-width="2"/>
      <circle id="Ellipse_2-13" data-name="Ellipse 2" cx="4" cy="4" r="4" transform="translate(406 290)" fill="none" stroke="#707070" stroke-width="2"/>
    </g>
  </g>
</svg>
