<?xml version="1.0" standalone="no"?>
<!DOCTYPE svg PUBLIC "-//W3C//DTD SVG 20010904//EN"
 "http://www.w3.org/TR/2001/REC-SVG-20010904/DTD/svg10.dtd">
<svg version="1.0" xmlns="http://www.w3.org/2000/svg"
 width="1078.000000pt" height="809.000000pt" viewBox="0 0 1078.000000 809.000000"
 preserveAspectRatio="xMidYMid meet">
<metadata>
Created by potrace 1.16, written by Peter Selinger 2001-2019
</metadata>
<g transform="translate(0.000000,809.000000) scale(0.100000,-0.100000)"
fill="#000000" stroke="none">
<path d="M1095 8058 c15 -18 230 -262 479 -542 248 -279 461 -520 474 -535 13
-14 38 -42 56 -61 17 -19 119 -134 226 -255 423 -479 939 -1060 985 -1109 6
-6 98 -110 205 -231 416 -471 942 -1062 985 -1109 6 -6 118 -132 249 -281 132
-148 370 -418 530 -598 182 -206 290 -335 288 -345 -17 -79 -14 -101 16 -132
25 -25 39 -30 77 -30 40 0 52 5 76 31 68 73 12 189 -87 177 -33 -4 -40 4 -323
322 -159 179 -298 334 -308 346 -33 38 -146 165 -323 364 -96 108 -204 229
-240 270 -36 41 -177 200 -315 355 -228 256 -302 340 -420 474 -22 25 -119
133 -215 241 -96 108 -204 229 -240 270 -36 41 -177 200 -315 355 -228 256
-302 340 -420 474 -22 25 -119 133 -215 241 -96 108 -204 229 -240 270 -36 41
-179 202 -319 359 -140 157 -270 304 -290 327 -20 22 -65 74 -101 115 -214
243 -240 269 -272 269 l-30 0 27 -32z"/>
<path d="M1642 8073 c65 -77 986 -1117 1043 -1179 49 -54 126 -141 430 -484
434 -491 784 -885 830 -934 6 -6 168 -189 360 -406 428 -484 781 -881 830
-934 6 -6 116 -130 245 -276 862 -975 858 -971 868 -920 1 8 -102 132 -230
276 -199 223 -294 330 -368 414 -39 44 -160 181 -320 360 -96 108 -204 229
-240 270 -36 41 -159 180 -275 310 -199 223 -321 362 -355 400 -31 35 -150
169 -320 360 -96 108 -204 229 -240 270 -36 41 -159 180 -275 310 -199 223
-321 362 -355 400 -31 35 -150 169 -320 360 -96 108 -204 229 -240 270 -36 41
-159 180 -275 310 -199 223 -321 362 -355 400 -35 40 -153 173 -268 302 -108
120 -128 138 -155 138 -28 0 -29 -1 -15 -17z"/>
<path d="M2322 8018 c153 -173 553 -624 563 -634 45 -50 125 -139 430 -484
430 -486 781 -881 830 -934 6 -6 98 -110 205 -231 107 -121 354 -400 549 -620
307 -345 377 -424 436 -489 25 -27 260 -292 475 -536 128 -146 242 -275 253
-287 17 -19 18 -26 7 -57 -22 -69 29 -146 98 -146 55 0 112 56 112 110 0 61
-65 117 -124 106 -33 -6 -51 11 -306 304 -37 43 -159 180 -320 360 -96 108
-204 229 -240 270 -36 41 -159 180 -275 310 -199 223 -321 362 -355 400 -41
47 -163 184 -320 360 -96 108 -204 229 -240 270 -36 41 -159 180 -275 310
-199 223 -321 362 -355 400 -31 35 -150 169 -320 360 -96 108 -204 229 -240
270 -36 41 -159 180 -275 310 -115 129 -232 261 -260 293 -42 48 -54 57 -83
57 l-34 0 64 -72z"/>
<path d="M2526 8078 c9 -15 892 -1010 959 -1082 6 -6 116 -130 245 -276 129
-146 271 -307 317 -358 69 -78 81 -97 73 -112 -6 -10 -10 -35 -10 -55 0 -51
53 -105 102 -105 64 0 108 44 108 108 0 35 -6 49 -29 73 -24 24 -38 29 -78 29
-48 1 -49 1 -118 81 -122 140 -177 202 -415 469 -96 108 -204 229 -240 270
-36 41 -177 200 -315 355 -246 277 -341 384 -420 474 -110 125 -127 141 -157
141 -20 0 -27 -4 -22 -12z"/>
<path d="M2841 8063 c14 -16 169 -190 344 -388 285 -322 366 -412 400 -449 6
-6 98 -110 205 -231 412 -467 939 -1059 985 -1109 6 -6 98 -110 205 -231 413
-467 939 -1060 985 -1109 6 -6 116 -130 245 -276 569 -643 511 -582 532 -563
18 16 18 17 -5 42 -60 67 -202 228 -257 291 -41 47 -163 184 -320 360 -96 108
-204 229 -240 270 -36 41 -159 180 -275 310 -199 223 -321 362 -355 400 -41
47 -163 184 -320 360 -96 108 -204 229 -240 270 -36 41 -159 180 -275 310
-199 223 -321 362 -355 400 -41 47 -163 184 -320 360 -96 108 -204 229 -240
270 -36 41 -159 180 -275 310 -235 265 -330 372 -360 406 -14 17 -31 24 -55
24 l-34 0 25 -27z"/>
<path d="M3100 8084 c0 -4 502 -573 565 -640 26 -28 92 -103 236 -264 177
-200 925 -1043 952 -1074 10 -12 33 -37 50 -56 42 -46 268 -300 657 -740 172
-195 318 -358 323 -361 5 -4 5 -15 -2 -27 -21 -40 -13 -96 17 -126 100 -95
246 43 153 146 -25 28 -35 32 -77 32 l-49 0 -190 213 c-104 118 -199 224 -210
237 -11 13 -38 43 -60 68 -22 25 -69 78 -105 118 -36 41 -144 162 -240 270
-96 108 -204 229 -240 270 -36 41 -159 180 -275 310 -199 223 -321 362 -355
400 -31 35 -150 169 -320 360 -96 108 -193 217 -215 242 -457 518 -559 628
-587 628 -15 0 -28 -2 -28 -6z"/>
<path d="M3686 8058 c17 -18 68 -76 115 -128 101 -114 150 -169 164 -184 6 -6
98 -110 205 -231 223 -252 899 -1014 915 -1031 32 -35 101 -112 275 -309 262
-296 822 -927 835 -941 8 -9 55 -61 160 -179 317 -357 302 -338 287 -368 -50
-102 85 -194 170 -118 28 25 33 36 33 76 0 40 -5 51 -33 76 -28 25 -41 30 -75
27 -37 -3 -45 1 -73 32 -17 19 -109 123 -205 231 -96 107 -203 228 -239 269
-36 41 -159 180 -275 310 -189 212 -260 293 -376 424 -20 23 -135 152 -255
287 -120 135 -248 278 -284 319 -36 41 -159 180 -275 310 -190 213 -253 284
-380 429 -22 25 -134 151 -250 281 -115 129 -252 283 -304 343 -87 98 -97 107
-130 107 l-35 0 30 -32z"/>
<path d="M4591 7978 c57 -62 122 -133 144 -158 38 -44 118 -132 451 -500 83
-91 192 -212 243 -270 52 -58 119 -132 150 -166 31 -33 90 -98 131 -144 41
-47 118 -132 171 -190 53 -58 138 -152 189 -210 52 -58 137 -152 190 -210 53
-58 137 -151 187 -207 91 -101 91 -102 86 -147 -5 -40 -2 -48 25 -76 73 -73
194 -1 162 96 -16 47 -49 67 -105 62 -25 -2 -46 0 -47 4 -2 3 -23 28 -48 55
-25 26 -83 91 -130 143 -47 52 -87 97 -90 100 -3 3 -86 95 -185 205 -99 110
-203 225 -231 255 -28 30 -91 100 -140 155 -49 55 -91 102 -94 105 -3 3 -46
50 -95 105 -50 55 -92 102 -95 105 -3 3 -43 48 -90 100 -47 52 -106 118 -131
145 -25 28 -93 102 -150 166 -116 129 -259 287 -274 303 -5 6 -48 54 -95 106
-166 186 -160 180 -198 180 l-34 0 103 -112z"/>
<path d="M5877 8076 c4 -7 67 -78 139 -157 196 -215 418 -461 519 -574 49 -55
116 -129 149 -165 34 -36 158 -173 276 -305 118 -132 258 -287 311 -345 53
-58 138 -152 189 -210 52 -58 135 -150 185 -205 51 -55 136 -149 190 -210 53
-60 121 -135 149 -165 28 -30 110 -120 181 -200 71 -80 156 -174 189 -210 34
-36 158 -173 276 -305 118 -132 258 -287 311 -345 53 -58 138 -152 189 -210
52 -58 125 -139 163 -180 62 -68 68 -78 62 -107 -14 -74 45 -133 118 -119 41
8 65 31 73 74 14 71 -46 130 -119 117 -27 -5 -36 -2 -56 22 -14 15 -90 100
-169 188 -80 88 -179 198 -221 244 -42 47 -80 89 -86 95 -5 6 -48 54 -95 106
-47 52 -87 97 -90 100 -3 3 -86 95 -185 205 -99 110 -200 222 -225 249 -25 27
-49 54 -55 60 -52 58 -181 202 -185 206 -3 3 -46 50 -95 105 -50 55 -92 102
-95 105 -3 3 -43 48 -90 100 -47 52 -108 120 -136 150 -28 30 -91 100 -140
155 -49 55 -93 105 -99 111 -5 6 -46 51 -90 99 -44 49 -84 93 -90 99 -5 6 -48
54 -95 106 -47 52 -106 118 -131 145 -25 28 -93 102 -150 166 -116 129 -259
287 -274 303 -5 6 -48 54 -95 106 -47 52 -87 97 -90 100 -3 3 -86 95 -185 205
-272 302 -274 305 -307 305 -22 0 -27 -3 -21 -14z"/>
<path d="M6103 7260 c-45 -27 -63 -87 -40 -135 20 -43 68 -69 111 -61 31 6 37
1 169 -146 75 -84 153 -171 173 -193 20 -22 68 -76 108 -120 39 -44 114 -127
167 -185 53 -58 138 -152 189 -210 52 -58 139 -154 194 -215 56 -60 119 -130
141 -155 22 -25 99 -111 171 -190 72 -80 198 -219 280 -310 82 -91 190 -210
239 -265 49 -55 116 -129 149 -165 34 -36 158 -173 276 -305 118 -132 258
-287 311 -345 53 -58 138 -152 189 -210 52 -58 135 -150 185 -205 51 -55 136
-149 190 -210 54 -60 123 -137 154 -171 72 -77 109 -119 253 -280 109 -122
117 -134 112 -163 -23 -113 132 -168 181 -64 34 72 -12 138 -96 138 -46 0 -53
3 -86 40 -19 22 -54 60 -76 85 -23 25 -80 88 -127 140 -47 52 -87 97 -90 100
-3 3 -46 50 -95 105 -50 55 -92 102 -95 105 -3 3 -43 48 -90 100 -47 52 -108
120 -136 150 -28 30 -91 100 -140 155 -49 55 -91 102 -94 105 -3 3 -46 50 -95
105 -50 55 -92 102 -95 105 -3 3 -43 48 -90 100 -47 52 -106 118 -131 145 -25
28 -93 102 -150 166 -116 129 -259 287 -274 303 -5 6 -48 54 -95 106 -47 52
-87 97 -90 100 -3 3 -45 50 -95 105 -49 55 -114 127 -145 160 -30 33 -91 100
-135 149 -44 49 -84 94 -90 100 -5 6 -48 54 -95 106 -47 52 -87 97 -90 100 -3
3 -86 95 -185 205 -99 110 -200 222 -225 249 -25 27 -49 54 -55 60 -51 58
-181 202 -185 206 -5 5 -37 41 -188 207 -129 143 -125 136 -111 183 16 54 -6
105 -56 126 -46 19 -64 18 -102 -6z"/>
<path d="M4539 5925 c-55 -30 -61 -110 -13 -156 20 -18 37 -24 75 -24 39 0 53
-5 72 -25 12 -14 110 -124 217 -245 424 -479 939 -1060 985 -1109 6 -6 98
-110 205 -231 412 -467 939 -1059 985 -1109 6 -6 98 -110 205 -231 412 -467
939 -1059 985 -1109 6 -6 98 -110 205 -231 107 -121 354 -399 548 -619 l354
-398 -12 -43 c-22 -77 29 -140 111 -137 91 2 131 119 63 183 -19 18 -37 24
-73 25 -43 0 -51 4 -87 44 -62 71 -89 101 -315 355 -193 217 -266 300 -380
429 -20 23 -135 152 -255 287 -120 135 -248 278 -284 319 -36 41 -159 180
-275 310 -189 212 -260 293 -376 424 -20 23 -135 152 -255 287 -120 135 -248
278 -284 319 -36 41 -159 180 -275 310 -189 212 -260 293 -376 424 -20 23
-135 152 -255 287 -120 135 -248 278 -284 319 -36 41 -159 180 -275 310 -115
130 -239 269 -275 310 -36 40 -81 92 -101 114 -20 23 -123 138 -228 256 -178
199 -192 217 -186 246 16 89 -68 152 -146 109z"/>
<path d="M7054 5380 c-64 -26 -84 -115 -38 -169 35 -42 81 -49 131 -22 l38 22
185 -90 185 -90 96 -108 c137 -154 392 -437 399 -443 3 -3 64 -70 135 -150 71
-80 172 -192 225 -250 53 -58 138 -152 190 -210 51 -58 150 -168 220 -245 70
-77 194 -214 276 -305 81 -91 151 -167 154 -170 3 -3 64 -70 135 -150 71 -80
177 -197 235 -261 122 -134 402 -444 544 -603 54 -61 160 -178 236 -261 75
-82 190 -210 256 -284 116 -131 119 -134 122 -103 3 34 -8 53 -81 132 -23 25
-80 88 -127 140 -47 52 -89 100 -95 106 -5 6 -46 51 -90 99 -44 49 -85 93 -90
99 -6 6 -68 76 -140 156 -71 80 -132 147 -135 150 -3 3 -86 95 -185 205 -99
110 -182 202 -185 205 -3 3 -46 50 -95 105 -50 55 -92 102 -95 105 -3 3 -43
48 -90 100 -47 52 -102 113 -122 135 -20 22 -45 49 -55 61 -10 12 -56 63 -103
115 -185 204 -201 221 -455 504 -99 110 -182 202 -185 205 -3 3 -46 50 -95
105 -50 55 -92 102 -95 105 -3 3 -43 48 -90 100 -47 52 -102 113 -122 135 -20
22 -45 49 -55 61 -10 12 -56 63 -103 115 -47 51 -112 123 -145 159 -33 36 -82
92 -110 124 -46 53 -64 65 -234 147 -101 49 -187 89 -192 89 -5 0 -9 13 -9 30
0 44 -19 77 -55 95 -36 17 -59 18 -91 5z"/>
<path d="M7065 4849 c-41 -12 -65 -46 -65 -96 0 -34 5 -46 32 -68 27 -23 39
-26 74 -22 l42 4 214 -239 c117 -132 223 -252 236 -267 13 -14 38 -42 56 -61
17 -19 189 -213 381 -430 302 -341 728 -822 760 -856 49 -54 126 -141 430
-484 328 -371 710 -801 781 -880 61 -67 105 -117 436 -491 325 -367 333 -376
336 -342 3 35 -10 52 -155 213 -17 19 -40 44 -50 56 -28 33 -133 151 -323 364
-96 108 -204 229 -240 270 -36 41 -159 180 -275 310 -199 223 -321 362 -355
400 -31 35 -150 169 -320 360 -96 108 -204 229 -240 270 -36 41 -159 180 -275
310 -199 223 -321 362 -355 400 -31 35 -150 169 -320 360 -96 108 -193 217
-215 242 -22 25 -137 154 -255 287 l-215 242 3 47 c4 76 -50 120 -123 101z"/>
<path d="M6363 4545 c-38 -16 -55 -45 -55 -93 0 -28 7 -43 32 -65 29 -25 38
-29 74 -24 l42 6 164 -185 c91 -102 178 -200 193 -217 16 -18 59 -66 96 -107
38 -41 209 -235 382 -430 305 -346 681 -770 746 -840 17 -19 42 -47 55 -61 13
-15 106 -121 208 -235 662 -747 895 -1010 905 -1020 34 -36 190 -212 466 -524
702 -795 660 -750 698 -750 l35 0 -26 28 c-32 34 -520 585 -588 662 -31 35
-150 169 -320 360 -96 108 -204 229 -240 270 -36 41 -159 180 -275 310 -199
223 -321 362 -355 400 -31 35 -150 169 -320 360 -96 108 -204 229 -240 270
-36 41 -159 180 -275 310 -199 223 -321 362 -355 400 -31 35 -150 169 -320
360 -96 108 -204 229 -240 270 -36 41 -131 148 -212 238 -138 155 -146 167
-141 198 8 48 -14 94 -53 110 -40 17 -41 17 -81 -1z"/>
<path d="M7029 4321 c-31 -32 -39 -84 -18 -123 15 -28 70 -49 105 -39 28 8 37
-1 292 -288 282 -318 317 -357 366 -411 17 -19 119 -134 226 -255 423 -479
939 -1060 985 -1109 6 -6 98 -110 205 -231 274 -310 898 -1013 936 -1055 18
-19 41 -44 51 -56 96 -109 545 -615 570 -643 l32 -36 0 35 c0 39 0 40 -89 140
-36 40 -73 82 -83 94 -10 12 -136 153 -280 315 -631 709 -873 982 -910 1025
-10 12 -136 153 -280 315 -631 709 -873 982 -910 1025 -24 27 -471 530 -791
889 l-249 280 2 52 c2 48 -1 55 -29 79 -44 36 -92 35 -131 -3z"/>
</g>
</svg>
